<svg class="map__scheme" width="1160" height="503" viewBox="0 0 1160 503" fill="none" xmlns="http://www.w3.org/2000/svg">

<g id="figure 2"  class="content content_2 content-active">
<circle id="Ellipse 53" cx="541.91" cy="204.863" r="16.5288" fill="#C80A14"/>
<rect id="Rectangle 485" x="571" y="169.885" width="275" height="71" rx="5" fill="#C80A14"/>
<g id="Frame 379">
<path id="&#208;&#147;&#208;&#190;&#209;&#128;&#208;&#186;&#208;&#176; &#208;&#184; &#208;&#188;&#208;&#176;&#209;&#129;&#209;&#130;&#208;&#181;&#209;&#128;&#209;&#129;&#208;&#186;&#208;&#176;&#209;&#143; &#209;&#129;&#208;&#176;&#208;&#189;&#208;&#181;&#208;&#185;" d="M588.9 180.885H596.4V183.885H592.05V201.885H588.9V180.885ZM600.751 198.885H603.901V183.885H600.751V198.885ZM605.671 201.885H598.981C598.141 201.885 597.601 201.315 597.601 200.505V182.265C597.601 181.455 598.141 180.885 598.981 180.885H605.671C606.511 180.885 607.051 181.455 607.051 182.265V200.505C607.051 201.315 606.511 201.885 605.671 201.885ZM612.001 183.885V191.985H615.001V183.885H612.001ZM616.771 194.985H612.001V201.885H608.851V180.885H616.771C617.611 180.885 618.151 181.455 618.151 182.265V193.605C618.151 194.415 617.611 194.985 616.771 194.985ZM626.618 190.485L629.858 201.885H626.528L623.768 191.985H622.958V201.885H619.808V180.885H622.958V188.985H623.858L626.528 180.885H629.858L626.618 190.485ZM630.912 180.885H640.212V201.885H637.062V194.985H634.062V201.885H630.912V180.885ZM637.062 191.985V183.885H634.062V191.985H637.062ZM656.863 201.885H653.713V190.125L650.263 197.355V201.885H647.113V180.885H650.263V191.565L653.713 184.335V180.885H656.863V201.885ZM670.234 192.885L672.814 180.885H676.654V201.885H673.504V192.885L674.014 186.885H673.864L671.674 197.685H668.734L666.484 186.885H666.334L666.904 192.885V201.885H663.754V180.885H667.594L670.144 192.885H670.234ZM678.461 180.885H687.761V201.885H684.611V194.985H681.611V201.885H678.461V180.885ZM684.611 191.985V183.885H681.611V191.985H684.611ZM698.714 201.885H690.944C690.104 201.885 689.564 201.315 689.564 200.505V182.265C689.564 181.455 690.104 180.885 690.944 180.885H698.714V186.885H695.564V183.885H692.714V198.885H695.564V194.985H698.714V201.885ZM699.775 183.885V180.885H708.925V183.885H705.925V201.885H702.775V183.885H699.775ZM710.13 201.885V180.885H717.93V183.885H713.28V188.985H717.78V191.985H713.28V198.885H717.93V201.885H710.13ZM722.743 183.885V191.985H725.743V183.885H722.743ZM727.513 194.985H722.743V201.885H719.593V180.885H727.513C728.353 180.885 728.893 181.455 728.893 182.265V193.605C728.893 194.415 728.353 194.985 727.513 194.985ZM739.7 201.885H731.93C731.09 201.885 730.55 201.315 730.55 200.505V182.265C730.55 181.455 731.09 180.885 731.93 180.885H739.7V186.885H736.55V183.885H733.7V198.885H736.55V194.985H739.7V201.885ZM748.171 190.485L751.411 201.885H748.081L745.321 191.985H744.511V201.885H741.361V180.885H744.511V188.985H745.411L748.081 180.885H751.411L748.171 190.485ZM752.464 180.885H761.764V201.885H758.614V194.985H755.614V201.885H752.464V180.885ZM758.614 191.985V183.885H755.614V191.985H758.614ZM766.298 201.885H762.968L766.058 191.985H765.098C764.258 191.985 763.718 191.415 763.718 190.605V182.265C763.718 181.455 764.258 180.885 765.098 180.885H772.868V201.885H769.718V191.985H769.418L766.298 201.885ZM769.718 188.985V183.885H766.868V188.985H769.718ZM788.919 201.885H781.149C780.309 201.885 779.769 201.315 779.769 200.505V182.265C779.769 181.455 780.309 180.885 781.149 180.885H788.919V186.885H785.769V183.885H782.919V198.885H785.769V194.985H788.919V201.885ZM790.58 180.885H799.88V201.885H796.73V194.985H793.73V201.885H790.58V180.885ZM796.73 191.985V183.885H793.73V191.985H796.73ZM808.283 180.885H811.433V201.885H808.283V191.985H804.833V201.885H801.683V180.885H804.833V188.985H808.283V180.885ZM813.226 201.885V180.885H821.026V183.885H816.376V188.985H820.876V191.985H816.376V198.885H821.026V201.885H813.226ZM825.689 179.985L825.089 177.735H829.439L828.839 179.985H825.689ZM832.439 201.885H829.289V190.125L825.839 197.355V201.885H822.689V180.885H825.839V191.565L829.289 184.335V180.885H832.439V201.885Z" fill="white"/>
<path id="17-21 &#209;&#132;&#208;&#181;&#208;&#178;&#209;&#128;&#208;&#176;&#208;&#187;&#209;&#143;" d="M590.656 224.885V214.325L591.344 215.077H588.128V213.685H592.24V224.885H590.656ZM596.626 224.885L601.378 214.357L601.794 215.077H595.138L595.938 214.293V217.077H594.402V213.685H602.85V214.773L598.322 224.885H596.626ZM603.6 221.157V219.829H607.904V221.157H603.6ZM609.201 224.885V223.797L613.761 219.397C614.167 219.013 614.465 218.677 614.657 218.389C614.86 218.09 614.993 217.818 615.057 217.573C615.132 217.317 615.169 217.071 615.169 216.837C615.169 216.261 614.967 215.807 614.561 215.477C614.156 215.146 613.564 214.981 612.785 214.981C612.188 214.981 611.649 215.082 611.169 215.285C610.689 215.477 610.273 215.781 609.921 216.197L608.833 215.253C609.26 214.709 609.831 214.293 610.545 214.005C611.271 213.706 612.065 213.557 612.929 213.557C613.708 213.557 614.385 213.685 614.961 213.941C615.537 214.186 615.98 214.543 616.289 215.013C616.609 215.482 616.769 216.037 616.769 216.677C616.769 217.039 616.721 217.397 616.625 217.749C616.529 218.101 616.348 218.474 616.081 218.869C615.815 219.263 615.431 219.706 614.929 220.197L610.865 224.117L610.481 223.493H617.249V224.885H609.201ZM620.453 224.885V214.325L621.141 215.077H617.925V213.685H622.037V224.885H620.453ZM634.56 225.013C634.549 225.013 634.512 225.013 634.448 225.013C634.394 225.013 634.341 225.013 634.288 225.013C634.234 225.013 634.202 225.013 634.192 225.013C632.453 224.991 631.104 224.607 630.144 223.861C629.184 223.103 628.704 222.026 628.704 220.629C628.704 219.242 629.184 218.181 630.144 217.445C631.114 216.698 632.48 216.319 634.24 216.309C634.261 216.309 634.293 216.309 634.336 216.309C634.389 216.309 634.437 216.309 634.48 216.309C634.533 216.309 634.565 216.309 634.576 216.309C636.357 216.309 637.738 216.682 638.72 217.429C639.712 218.175 640.208 219.242 640.208 220.629C640.208 222.037 639.712 223.119 638.72 223.877C637.728 224.634 636.341 225.013 634.56 225.013ZM634.528 223.669C635.456 223.669 636.224 223.551 636.832 223.317C637.45 223.082 637.914 222.741 638.224 222.293C638.533 221.845 638.688 221.29 638.688 220.629C638.688 219.978 638.533 219.434 638.224 218.997C637.914 218.559 637.45 218.229 636.832 218.005C636.224 217.781 635.456 217.669 634.528 217.669C634.506 217.669 634.464 217.669 634.4 217.669C634.336 217.669 634.298 217.669 634.288 217.669C633.381 217.669 632.624 217.786 632.016 218.021C631.418 218.245 630.97 218.575 630.672 219.013C630.373 219.45 630.224 219.989 630.224 220.629C630.224 221.279 630.373 221.829 630.672 222.277C630.981 222.725 631.434 223.066 632.032 223.301C632.64 223.535 633.392 223.658 634.288 223.669C634.309 223.669 634.346 223.669 634.4 223.669C634.464 223.669 634.506 223.669 634.528 223.669ZM633.696 227.989V213.013H635.2V227.989H633.696ZM646.155 224.981C645.248 224.981 644.448 224.794 643.755 224.421C643.072 224.047 642.539 223.535 642.155 222.885C641.781 222.234 641.595 221.487 641.595 220.645C641.595 219.802 641.776 219.055 642.139 218.405C642.512 217.754 643.019 217.247 643.659 216.885C644.309 216.511 645.04 216.325 645.851 216.325C646.672 216.325 647.397 216.506 648.027 216.869C648.656 217.231 649.147 217.743 649.499 218.405C649.861 219.055 650.043 219.818 650.043 220.693C650.043 220.757 650.037 220.831 650.027 220.917C650.027 221.002 650.021 221.082 650.011 221.157H642.795V220.053H649.211L648.587 220.437C648.597 219.893 648.485 219.407 648.251 218.981C648.016 218.554 647.691 218.223 647.275 217.989C646.869 217.743 646.395 217.621 645.851 217.621C645.317 217.621 644.843 217.743 644.427 217.989C644.011 218.223 643.685 218.559 643.451 218.997C643.216 219.423 643.099 219.914 643.099 220.469V220.725C643.099 221.29 643.227 221.797 643.483 222.245C643.749 222.682 644.117 223.023 644.587 223.269C645.056 223.514 645.595 223.637 646.203 223.637C646.704 223.637 647.157 223.551 647.563 223.381C647.979 223.21 648.341 222.954 648.651 222.613L649.499 223.605C649.115 224.053 648.635 224.394 648.059 224.629C647.493 224.863 646.859 224.981 646.155 224.981ZM652.426 224.885V216.405H656.362C657.354 216.405 658.132 216.597 658.698 216.981C659.274 217.354 659.562 217.887 659.562 218.581C659.562 219.274 659.29 219.813 658.746 220.197C658.212 220.57 657.503 220.757 656.618 220.757L656.858 220.341C657.871 220.341 658.623 220.527 659.114 220.901C659.604 221.274 659.85 221.823 659.85 222.549C659.85 223.285 659.572 223.861 659.017 224.277C658.474 224.682 657.636 224.885 656.506 224.885H652.426ZM653.93 223.701H656.394C657.034 223.701 657.514 223.605 657.834 223.413C658.154 223.21 658.314 222.89 658.314 222.453C658.314 222.005 658.164 221.679 657.866 221.477C657.578 221.263 657.119 221.157 656.49 221.157H653.93V223.701ZM653.93 220.053H656.234C656.82 220.053 657.263 219.946 657.562 219.733C657.871 219.509 658.026 219.199 658.026 218.805C658.026 218.399 657.871 218.095 657.562 217.893C657.263 217.69 656.82 217.589 656.234 217.589H653.93V220.053ZM666.75 224.981C666.046 224.981 665.4 224.821 664.814 224.501C664.238 224.17 663.774 223.685 663.422 223.045C663.08 222.405 662.91 221.605 662.91 220.645C662.91 219.685 663.075 218.885 663.406 218.245C663.747 217.605 664.206 217.125 664.782 216.805C665.368 216.485 666.024 216.325 666.75 216.325C667.582 216.325 668.318 216.506 668.958 216.869C669.598 217.231 670.104 217.738 670.478 218.389C670.851 219.029 671.038 219.781 671.038 220.645C671.038 221.509 670.851 222.266 670.478 222.917C670.104 223.567 669.598 224.074 668.958 224.437C668.318 224.799 667.582 224.981 666.75 224.981ZM662.254 227.989V216.405H663.726V218.693L663.63 220.661L663.79 222.629V227.989H662.254ZM666.622 223.637C667.166 223.637 667.651 223.514 668.078 223.269C668.515 223.023 668.856 222.677 669.102 222.229C669.358 221.77 669.486 221.242 669.486 220.645C669.486 220.037 669.358 219.514 669.102 219.077C668.856 218.629 668.515 218.282 668.078 218.037C667.651 217.791 667.166 217.669 666.622 217.669C666.088 217.669 665.603 217.791 665.166 218.037C664.739 218.282 664.398 218.629 664.142 219.077C663.896 219.514 663.774 220.037 663.774 220.645C663.774 221.242 663.896 221.77 664.142 222.229C664.398 222.677 664.739 223.023 665.166 223.269C665.603 223.514 666.088 223.637 666.622 223.637ZM678.391 224.885V223.093L678.311 222.757V219.701C678.311 219.05 678.119 218.549 677.735 218.197C677.362 217.834 676.796 217.653 676.039 217.653C675.538 217.653 675.047 217.738 674.567 217.909C674.087 218.069 673.682 218.287 673.351 218.565L672.711 217.413C673.148 217.061 673.671 216.794 674.279 216.613C674.898 216.421 675.543 216.325 676.215 216.325C677.378 216.325 678.274 216.607 678.903 217.173C679.532 217.738 679.847 218.602 679.847 219.765V224.885H678.391ZM675.607 224.981C674.978 224.981 674.423 224.874 673.943 224.661C673.474 224.447 673.111 224.154 672.855 223.781C672.599 223.397 672.471 222.965 672.471 222.485C672.471 222.026 672.578 221.61 672.791 221.237C673.015 220.863 673.372 220.565 673.863 220.341C674.364 220.117 675.036 220.005 675.879 220.005H678.567V221.109H675.943C675.175 221.109 674.658 221.237 674.391 221.493C674.124 221.749 673.991 222.058 673.991 222.421C673.991 222.837 674.156 223.173 674.487 223.429C674.818 223.674 675.276 223.797 675.863 223.797C676.439 223.797 676.94 223.669 677.367 223.413C677.804 223.157 678.119 222.783 678.311 222.293L678.615 223.349C678.412 223.85 678.055 224.25 677.543 224.549C677.031 224.837 676.386 224.981 675.607 224.981ZM681.205 224.869L681.301 223.573C681.376 223.583 681.445 223.594 681.509 223.605C681.573 223.615 681.632 223.621 681.685 223.621C682.026 223.621 682.293 223.503 682.485 223.269C682.688 223.034 682.837 222.725 682.933 222.341C683.029 221.946 683.098 221.503 683.141 221.013C683.184 220.522 683.216 220.031 683.237 219.541L683.381 216.405H689.893V224.885H688.357V217.301L688.725 217.749H684.373L684.725 217.285L684.613 219.637C684.581 220.383 684.522 221.082 684.437 221.733C684.352 222.383 684.218 222.954 684.037 223.445C683.866 223.935 683.626 224.319 683.317 224.597C683.018 224.874 682.629 225.013 682.149 225.013C682.01 225.013 681.861 224.997 681.701 224.965C681.552 224.943 681.386 224.911 681.205 224.869ZM698.287 224.885V221.909L698.527 222.197H695.823C694.692 222.197 693.807 221.957 693.167 221.477C692.538 220.997 692.223 220.298 692.223 219.381C692.223 218.399 692.559 217.658 693.231 217.157C693.914 216.655 694.82 216.405 695.951 216.405H699.663V224.885H698.287ZM692.143 224.885L694.447 221.637H696.031L693.791 224.885H692.143ZM698.287 221.429V217.317L698.527 217.749H695.999C695.295 217.749 694.751 217.882 694.367 218.149C693.983 218.405 693.791 218.831 693.791 219.429C693.791 220.538 694.506 221.093 695.935 221.093H698.527L698.287 221.429Z" fill="white"/>
</g>
<path id="1" d="M539.434 197.392V194.392H543.934V215.392H540.784V197.392H539.434Z" fill="white"/>
</g>

</svg>
