<svg class="map__scheme" width="1160" height="503" viewBox="0 0 1160 503" fill="none" xmlns="http://www.w3.org/2000/svg">
  <g id="figure 1"  class="content content_1 content-active">
    <circle id="Ellipse 53" cx="541.91" cy="204.863" r="16.5288" fill="#C80A14"/>
    <rect id="Rectangle 485" x="571" y="169.885" width="314" height="71" rx="5" fill="#C80A14"/>
    <g id="Frame 379">
    <path id="&#208;&#147;&#208;&#190;&#209;&#128;&#208;&#186;&#208;&#176; &#208;&#184; &#208;&#188;&#208;&#176;&#209;&#129;&#209;&#130;&#208;&#181;&#209;&#128;&#209;&#129;&#208;&#186;&#208;&#176;&#209;&#143; &#209;&#130;&#209;&#142;&#208;&#177;&#208;&#184;&#208;&#189;&#208;&#179;&#208;&#190;&#208;&#178;" d="M588.9 180.885H596.4V183.885H592.05V201.885H588.9V180.885ZM600.751 198.885H603.901V183.885H600.751V198.885ZM605.671 201.885H598.981C598.141 201.885 597.601 201.315 597.601 200.505V182.265C597.601 181.455 598.141 180.885 598.981 180.885H605.671C606.511 180.885 607.051 181.455 607.051 182.265V200.505C607.051 201.315 606.511 201.885 605.671 201.885ZM612.001 183.885V191.985H615.001V183.885H612.001ZM616.771 194.985H612.001V201.885H608.851V180.885H616.771C617.611 180.885 618.151 181.455 618.151 182.265V193.605C618.151 194.415 617.611 194.985 616.771 194.985ZM626.618 190.485L629.858 201.885H626.528L623.768 191.985H622.958V201.885H619.808V180.885H622.958V188.985H623.858L626.528 180.885H629.858L626.618 190.485ZM630.912 180.885H640.212V201.885H637.062V194.985H634.062V201.885H630.912V180.885ZM637.062 191.985V183.885H634.062V191.985H637.062ZM656.863 201.885H653.713V190.125L650.263 197.355V201.885H647.113V180.885H650.263V191.565L653.713 184.335V180.885H656.863V201.885ZM670.234 192.885L672.814 180.885H676.654V201.885H673.504V192.885L674.014 186.885H673.864L671.674 197.685H668.734L666.484 186.885H666.334L666.904 192.885V201.885H663.754V180.885H667.594L670.144 192.885H670.234ZM678.461 180.885H687.761V201.885H684.611V194.985H681.611V201.885H678.461V180.885ZM684.611 191.985V183.885H681.611V191.985H684.611ZM698.714 201.885H690.944C690.104 201.885 689.564 201.315 689.564 200.505V182.265C689.564 181.455 690.104 180.885 690.944 180.885H698.714V186.885H695.564V183.885H692.714V198.885H695.564V194.985H698.714V201.885ZM699.775 183.885V180.885H708.925V183.885H705.925V201.885H702.775V183.885H699.775ZM710.13 201.885V180.885H717.93V183.885H713.28V188.985H717.78V191.985H713.28V198.885H717.93V201.885H710.13ZM722.743 183.885V191.985H725.743V183.885H722.743ZM727.513 194.985H722.743V201.885H719.593V180.885H727.513C728.353 180.885 728.893 181.455 728.893 182.265V193.605C728.893 194.415 728.353 194.985 727.513 194.985ZM739.7 201.885H731.93C731.09 201.885 730.55 201.315 730.55 200.505V182.265C730.55 181.455 731.09 180.885 731.93 180.885H739.7V186.885H736.55V183.885H733.7V198.885H736.55V194.985H739.7V201.885ZM748.171 190.485L751.411 201.885H748.081L745.321 191.985H744.511V201.885H741.361V180.885H744.511V188.985H745.411L748.081 180.885H751.411L748.171 190.485ZM752.464 180.885H761.764V201.885H758.614V194.985H755.614V201.885H752.464V180.885ZM758.614 191.985V183.885H755.614V191.985H758.614ZM766.298 201.885H762.968L766.058 191.985H765.098C764.258 191.985 763.718 191.415 763.718 190.605V182.265C763.718 181.455 764.258 180.885 765.098 180.885H772.868V201.885H769.718V191.985H769.418L766.298 201.885ZM769.718 188.985V183.885H766.868V188.985H769.718ZM779.169 183.885V180.885H788.319V183.885H785.319V201.885H782.169V183.885H779.169ZM801.345 201.885H795.705C794.865 201.885 794.325 201.315 794.325 200.505V192.285H792.675V201.885H789.525V180.885H792.675V189.285H794.325V182.265C794.325 181.455 794.865 180.885 795.705 180.885H801.345C802.185 180.885 802.725 181.455 802.725 182.265V200.505C802.725 201.315 802.185 201.885 801.345 201.885ZM797.475 198.885H799.575V183.885H797.475V198.885ZM807.675 191.685V198.885H810.525V191.685H807.675ZM807.675 188.685H812.295C813.135 188.685 813.675 189.255 813.675 190.065V200.505C813.675 201.315 813.135 201.885 812.295 201.885H804.525V180.885H813.375V183.885H807.675V188.685ZM825.086 201.885H821.936V190.125L818.486 197.355V201.885H815.336V180.885H818.486V191.565L821.936 184.335V180.885H825.086V201.885ZM833.479 180.885H836.629V201.885H833.479V191.985H830.029V201.885H826.879V180.885H830.029V188.985H833.479V180.885ZM838.421 180.885H845.921V183.885H841.571V201.885H838.421V180.885ZM850.273 198.885H853.423V183.885H850.273V198.885ZM855.193 201.885H848.503C847.663 201.885 847.123 201.315 847.123 200.505V182.265C847.123 181.455 847.663 180.885 848.503 180.885H855.193C856.033 180.885 856.573 181.455 856.573 182.265V200.505C856.573 201.315 856.033 201.885 855.193 201.885ZM864.373 188.985V183.885H861.523V188.985H864.373ZM864.373 191.985H861.523V198.885H864.373V191.985ZM867.523 182.265V188.145C867.523 189.345 866.893 190.155 865.963 190.485C866.893 190.815 867.523 191.595 867.523 192.825V200.505C867.523 201.315 866.983 201.885 866.143 201.885H858.373V180.885H866.143C866.983 180.885 867.523 181.455 867.523 182.265Z" fill="white"/>
    <path id="14-21 &#209;&#132;&#208;&#181;&#208;&#178;&#209;&#128;&#208;&#176;&#208;&#187;&#209;&#143;" d="M590.656 224.885V214.325L591.344 215.077H588.128V213.685H592.24V224.885H590.656ZM594.53 222.133V221.013L600.258 213.685H601.986L596.306 221.013L595.49 220.757H604.434V222.133H594.53ZM600.754 224.885V222.133L600.802 220.757V218.325H602.306V224.885H600.754ZM605.693 221.157V219.829H609.997V221.157H605.693ZM611.295 224.885V223.797L615.855 219.397C616.26 219.013 616.559 218.677 616.751 218.389C616.954 218.09 617.087 217.818 617.151 217.573C617.226 217.317 617.263 217.071 617.263 216.837C617.263 216.261 617.06 215.807 616.655 215.477C616.25 215.146 615.658 214.981 614.879 214.981C614.282 214.981 613.743 215.082 613.263 215.285C612.783 215.477 612.367 215.781 612.015 216.197L610.927 215.253C611.354 214.709 611.924 214.293 612.639 214.005C613.364 213.706 614.159 213.557 615.023 213.557C615.802 213.557 616.479 213.685 617.055 213.941C617.631 214.186 618.074 214.543 618.383 215.013C618.703 215.482 618.863 216.037 618.863 216.677C618.863 217.039 618.815 217.397 618.719 217.749C618.623 218.101 618.442 218.474 618.175 218.869C617.908 219.263 617.524 219.706 617.023 220.197L612.959 224.117L612.575 223.493H619.343V224.885H611.295ZM622.547 224.885V214.325L623.235 215.077H620.019V213.685H624.131V224.885H622.547ZM636.653 225.013C636.643 225.013 636.605 225.013 636.541 225.013C636.488 225.013 636.435 225.013 636.381 225.013C636.328 225.013 636.296 225.013 636.285 225.013C634.547 224.991 633.197 224.607 632.237 223.861C631.277 223.103 630.797 222.026 630.797 220.629C630.797 219.242 631.277 218.181 632.237 217.445C633.208 216.698 634.573 216.319 636.333 216.309C636.355 216.309 636.387 216.309 636.429 216.309C636.483 216.309 636.531 216.309 636.573 216.309C636.627 216.309 636.659 216.309 636.669 216.309C638.451 216.309 639.832 216.682 640.813 217.429C641.805 218.175 642.301 219.242 642.301 220.629C642.301 222.037 641.805 223.119 640.813 223.877C639.821 224.634 638.435 225.013 636.653 225.013ZM636.621 223.669C637.549 223.669 638.317 223.551 638.925 223.317C639.544 223.082 640.008 222.741 640.317 222.293C640.627 221.845 640.781 221.29 640.781 220.629C640.781 219.978 640.627 219.434 640.317 218.997C640.008 218.559 639.544 218.229 638.925 218.005C638.317 217.781 637.549 217.669 636.621 217.669C636.6 217.669 636.557 217.669 636.493 217.669C636.429 217.669 636.392 217.669 636.381 217.669C635.475 217.669 634.717 217.786 634.109 218.021C633.512 218.245 633.064 218.575 632.765 219.013C632.467 219.45 632.317 219.989 632.317 220.629C632.317 221.279 632.467 221.829 632.765 222.277C633.075 222.725 633.528 223.066 634.125 223.301C634.733 223.535 635.485 223.658 636.381 223.669C636.403 223.669 636.44 223.669 636.493 223.669C636.557 223.669 636.6 223.669 636.621 223.669ZM635.789 227.989V213.013H637.293V227.989H635.789ZM648.248 224.981C647.342 224.981 646.542 224.794 645.848 224.421C645.166 224.047 644.632 223.535 644.248 222.885C643.875 222.234 643.688 221.487 643.688 220.645C643.688 219.802 643.87 219.055 644.232 218.405C644.606 217.754 645.112 217.247 645.752 216.885C646.403 216.511 647.134 216.325 647.944 216.325C648.766 216.325 649.491 216.506 650.12 216.869C650.75 217.231 651.24 217.743 651.592 218.405C651.955 219.055 652.136 219.818 652.136 220.693C652.136 220.757 652.131 220.831 652.12 220.917C652.12 221.002 652.115 221.082 652.104 221.157H644.888V220.053H651.304L650.68 220.437C650.691 219.893 650.579 219.407 650.344 218.981C650.11 218.554 649.784 218.223 649.368 217.989C648.963 217.743 648.488 217.621 647.944 217.621C647.411 217.621 646.936 217.743 646.52 217.989C646.104 218.223 645.779 218.559 645.544 218.997C645.31 219.423 645.192 219.914 645.192 220.469V220.725C645.192 221.29 645.32 221.797 645.576 222.245C645.843 222.682 646.211 223.023 646.68 223.269C647.15 223.514 647.688 223.637 648.296 223.637C648.798 223.637 649.251 223.551 649.656 223.381C650.072 223.21 650.435 222.954 650.744 222.613L651.592 223.605C651.208 224.053 650.728 224.394 650.152 224.629C649.587 224.863 648.952 224.981 648.248 224.981ZM654.519 224.885V216.405H658.455C659.447 216.405 660.226 216.597 660.791 216.981C661.367 217.354 661.655 217.887 661.655 218.581C661.655 219.274 661.383 219.813 660.839 220.197C660.306 220.57 659.597 220.757 658.711 220.757L658.951 220.341C659.965 220.341 660.717 220.527 661.207 220.901C661.698 221.274 661.943 221.823 661.943 222.549C661.943 223.285 661.666 223.861 661.111 224.277C660.567 224.682 659.73 224.885 658.599 224.885H654.519ZM656.023 223.701H658.487C659.127 223.701 659.607 223.605 659.927 223.413C660.247 223.21 660.407 222.89 660.407 222.453C660.407 222.005 660.258 221.679 659.959 221.477C659.671 221.263 659.213 221.157 658.583 221.157H656.023V223.701ZM656.023 220.053H658.327C658.914 220.053 659.357 219.946 659.655 219.733C659.965 219.509 660.119 219.199 660.119 218.805C660.119 218.399 659.965 218.095 659.655 217.893C659.357 217.69 658.914 217.589 658.327 217.589H656.023V220.053ZM668.843 224.981C668.139 224.981 667.494 224.821 666.907 224.501C666.331 224.17 665.867 223.685 665.515 223.045C665.174 222.405 665.003 221.605 665.003 220.645C665.003 219.685 665.169 218.885 665.499 218.245C665.841 217.605 666.299 217.125 666.875 216.805C667.462 216.485 668.118 216.325 668.843 216.325C669.675 216.325 670.411 216.506 671.051 216.869C671.691 217.231 672.198 217.738 672.571 218.389C672.945 219.029 673.131 219.781 673.131 220.645C673.131 221.509 672.945 222.266 672.571 222.917C672.198 223.567 671.691 224.074 671.051 224.437C670.411 224.799 669.675 224.981 668.843 224.981ZM664.347 227.989V216.405H665.819V218.693L665.723 220.661L665.883 222.629V227.989H664.347ZM668.715 223.637C669.259 223.637 669.745 223.514 670.171 223.269C670.609 223.023 670.95 222.677 671.195 222.229C671.451 221.77 671.579 221.242 671.579 220.645C671.579 220.037 671.451 219.514 671.195 219.077C670.95 218.629 670.609 218.282 670.171 218.037C669.745 217.791 669.259 217.669 668.715 217.669C668.182 217.669 667.697 217.791 667.259 218.037C666.833 218.282 666.491 218.629 666.235 219.077C665.99 219.514 665.867 220.037 665.867 220.645C665.867 221.242 665.99 221.77 666.235 222.229C666.491 222.677 666.833 223.023 667.259 223.269C667.697 223.514 668.182 223.637 668.715 223.637ZM680.485 224.885V223.093L680.405 222.757V219.701C680.405 219.05 680.213 218.549 679.829 218.197C679.456 217.834 678.89 217.653 678.133 217.653C677.632 217.653 677.141 217.738 676.661 217.909C676.181 218.069 675.776 218.287 675.445 218.565L674.805 217.413C675.242 217.061 675.765 216.794 676.373 216.613C676.992 216.421 677.637 216.325 678.309 216.325C679.472 216.325 680.368 216.607 680.997 217.173C681.626 217.738 681.941 218.602 681.941 219.765V224.885H680.485ZM677.701 224.981C677.072 224.981 676.517 224.874 676.037 224.661C675.568 224.447 675.205 224.154 674.949 223.781C674.693 223.397 674.565 222.965 674.565 222.485C674.565 222.026 674.672 221.61 674.885 221.237C675.109 220.863 675.466 220.565 675.957 220.341C676.458 220.117 677.13 220.005 677.973 220.005H680.661V221.109H678.037C677.269 221.109 676.752 221.237 676.485 221.493C676.218 221.749 676.085 222.058 676.085 222.421C676.085 222.837 676.25 223.173 676.581 223.429C676.912 223.674 677.37 223.797 677.957 223.797C678.533 223.797 679.034 223.669 679.461 223.413C679.898 223.157 680.213 222.783 680.405 222.293L680.709 223.349C680.506 223.85 680.149 224.25 679.637 224.549C679.125 224.837 678.48 224.981 677.701 224.981ZM683.299 224.869L683.395 223.573C683.469 223.583 683.539 223.594 683.603 223.605C683.667 223.615 683.725 223.621 683.779 223.621C684.12 223.621 684.387 223.503 684.579 223.269C684.781 223.034 684.931 222.725 685.027 222.341C685.123 221.946 685.192 221.503 685.235 221.013C685.277 220.522 685.309 220.031 685.331 219.541L685.475 216.405H691.987V224.885H690.451V217.301L690.819 217.749H686.467L686.819 217.285L686.707 219.637C686.675 220.383 686.616 221.082 686.531 221.733C686.445 222.383 686.312 222.954 686.131 223.445C685.96 223.935 685.72 224.319 685.411 224.597C685.112 224.874 684.723 225.013 684.243 225.013C684.104 225.013 683.955 224.997 683.795 224.965C683.645 224.943 683.48 224.911 683.299 224.869ZM700.381 224.885V221.909L700.621 222.197H697.917C696.786 222.197 695.901 221.957 695.261 221.477C694.631 220.997 694.317 220.298 694.317 219.381C694.317 218.399 694.653 217.658 695.325 217.157C696.007 216.655 696.914 216.405 698.045 216.405H701.757V224.885H700.381ZM694.237 224.885L696.541 221.637H698.125L695.885 224.885H694.237ZM700.381 221.429V217.317L700.621 217.749H698.093C697.389 217.749 696.845 217.882 696.461 218.149C696.077 218.405 695.885 218.831 695.885 219.429C695.885 220.538 696.599 221.093 698.029 221.093H700.621L700.381 221.429Z" fill="white"/>
    </g>
    <path id="1" d="M539.434 197.392V194.392H543.934V215.392H540.784V197.392H539.434Z" fill="white"/>
  </g>
</svg>
