<svg class="map__scheme" width="660" height="507" viewBox="0 0 660 507" fill="none" xmlns="http://www.w3.org/2000/svg">

  <g id="figure 3" class="figure figure_3">
    <rect id="Rectangle 494" x="126.379" y="328.75" width="52.5685" height="112.039" rx="4" transform="rotate(-55.4531 126.379 328.75)" fill="white" stroke="#C80A14" stroke-width="2"/>
    <path id="3" d="M190.049 349.452H184.259C183.419 349.452 182.879 348.882 182.879 348.072V342.552H186.029V346.452H188.279V339.012H185.129V336.222L187.979 331.452H183.029V328.452H191.279V331.152L188.399 336.012H190.049C190.889 336.012 191.429 336.582 191.429 337.392V348.072C191.429 348.882 190.889 349.452 190.049 349.452Z" fill="#C80A14"/>
  </g>
  <g id="figure 1" class="figure figure_1">
    <rect id="Rectangle 494_2" x="198.498" y="296.454" width="139" height="34.8803" rx="4" transform="rotate(-55.4531 198.498 296.454)" fill="white" stroke="#C80A14" stroke-width="2"/>
    <path id="1" d="M248.583 242.952V239.952H253.083V260.952H249.933V242.952H248.583Z" fill="#C80A14"/>
  </g>
  <g id="figure 2" class="figure figure_2">
    <rect id="Rectangle 494_3" x="347.391" y="250.087" width="23.2224" height="19.4277" rx="4" transform="rotate(-55.4531 347.391 250.087)" fill="white" stroke="#C80A14" stroke-width="2"/>
    <path id="2" d="M364.827 239.918V243.278L361.227 250.378V250.998H364.827V252.998H359.127V250.098L362.727 242.998V240.998H361.227V242.998H359.127V239.918C359.127 239.378 359.487 238.998 360.047 238.998H363.907C364.467 238.998 364.827 239.378 364.827 239.918Z" fill="#C80A14"/>
  </g>
  <g id="figure 5" class="figure figure_5">
    <rect id="Rectangle 494_4" x="294.303" y="276.254" width="38.1928" height="39.2325" rx="4" transform="rotate(-22.1208 294.303 276.254)" fill="white" stroke="#C80A14" stroke-width="2"/>
    <path id="5" d="M320.509 285.776H318.259V286.976H315.109V275.876H323.509V278.876H318.259V282.776H322.279C323.119 282.776 323.659 283.346 323.659 284.156V295.496C323.659 296.306 323.119 296.876 322.279 296.876H316.489C315.649 296.876 315.109 296.306 315.109 295.496V289.976H318.259V293.876H320.509V285.776Z" fill="#C80A14"/>
  </g>
  <g id="figure 4" class="figure figure_4">
    <rect id="Rectangle 494_5" x="268.303" y="326.254" width="38.1928" height="39.2325" rx="4" transform="rotate(-22.1208 268.303 326.254)" fill="white" stroke="#C80A14" stroke-width="2"/>
    <path id="4" d="M296.975 346.876H293.825V342.976H288.575V340.276L292.715 325.876H296.015L291.965 339.976H293.825V337.276L296.975 336.676V339.976H298.175V342.976H296.975V346.876Z" fill="#C80A14"/>
  </g>

</svg>
