<svg class="map__scheme" width="660" height="505" viewBox="0 0 660 505" fill="none" xmlns="http://www.w3.org/2000/svg">
  <g id="figure 4" class="figure figure_4">
    <circle id="Ellipse 53" cx="383.471" cy="296.119" r="16.5288" fill="white" stroke="#C80A14"/>
    <path id="4" d="M387.066 306.648H383.916V302.748H378.666V300.048L382.806 285.648H386.106L382.056 299.748H383.916V297.048L387.066 296.448V299.748H388.266V302.748H387.066V306.648Z" fill="white"/>
  </g>
  <g id="figure 1" class="figure figure_1">
    <circle id="Ellipse 53_2" cx="324.619" cy="243.484" r="15.5288" fill="white" stroke="#C80A14" stroke-width="2"/>
    <path id="1" d="M322.143 236.013V233.013H326.643V254.013H323.493V236.013H322.143Z" fill="#C80A14"/>
  </g>
  <g id="figure 2" class="figure figure_2">
    <circle id="Ellipse 53_3" cx="249.986" cy="302.859" r="15.5288" fill="white" stroke="#C80A14" stroke-width="2"/>
    <path id="2" d="M254.262 293.768V298.808L248.862 309.458V310.388H254.262V313.388H245.712V309.038L251.112 298.388V295.388H248.862V298.388H245.712V293.768C245.712 292.958 246.252 292.388 247.092 292.388H252.882C253.722 292.388 254.262 292.958 254.262 293.768Z" fill="#C80A14"/>
  </g>
  <g id="figure 5" class="figure figure_5">
    <circle id="Ellipse 53_4" cx="266.514" cy="369.648" r="15.5288" fill="white" stroke="#C80A14" stroke-width="2"/>
    <path id="5" d="M267.644 369.076H265.394V370.276H262.244V359.176H270.644V362.176H265.394V366.076H269.414C270.254 366.076 270.794 366.646 270.794 367.456V378.796C270.794 379.606 270.254 380.176 269.414 380.176H263.624C262.784 380.176 262.244 379.606 262.244 378.796V373.276H265.394V377.176H267.644V369.076Z" fill="#C80A14"/>
  </g>
  <g id="figure 3"  class="figure figure_3">
    <circle id="Ellipse 53_5" cx="330" cy="332.571" r="15.5288" fill="white" stroke="#C80A14" stroke-width="2"/>
    <path id="3" d="M332.899 343.099H327.109C326.269 343.099 325.729 342.529 325.729 341.719V336.199H328.879V340.099H331.129V332.659H327.979V329.869L330.829 325.099H325.879V322.099H334.129V324.799L331.249 329.659H332.899C333.739 329.659 334.279 330.229 334.279 331.039V341.719C334.279 342.529 333.739 343.099 332.899 343.099Z" fill="#C80A14"/>
  </g>
  <g id="figure 6"  class="figure figure_6">
    <circle id="Ellipse 53_6" cx="330" cy="415.811" r="15.5288" fill="white" stroke="#C80A14" stroke-width="2"/>
    <path id="6" d="M331.129 416.44H328.879V423.34H331.129V416.44ZM334.279 406.72V411.34H331.129V408.34H328.879V413.44H332.899C333.739 413.44 334.279 414.01 334.279 414.82V424.96C334.279 425.77 333.739 426.34 332.899 426.34H327.109C326.269 426.34 325.729 425.77 325.729 424.96V406.72C325.729 405.91 326.269 405.34 327.109 405.34H332.899C333.739 405.34 334.279 405.91 334.279 406.72Z" fill="#C80A14"/>
  </g>
</svg>
