<svg width="465" height="101" viewBox="0 0 465 101" fill="none" xmlns="http://www.w3.org/2000/svg">
<path d="M0 71V60.24C1.85 60.24 3.37004 59.48 4.54004 57.97C5.71004 56.46 6.51996 53.89 6.95996 50.26L9.43994 29.9401H40.95V70.27H28.73V40.58H20.45L19.1201 51.16C18.6401 54.99 17.8199 58.2401 16.6699 60.9301C15.5199 63.6101 14.0701 65.6599 12.3201 67.0699C10.5701 68.4799 8.69998 69.49 6.72998 70.09C4.74998 70.7 2.52002 71 0.0200195 71H0Z" fill="#202020"/>
<path d="M88.231 70.27H74.3809L72.9309 65.55H58.4209L56.9709 70.27H43.1211L58.001 29.9401H73.3611L88.241 70.27H88.231ZM69.6609 54.91L65.6709 41.91L61.6809 54.91H69.6609Z" fill="#202020"/>
<path d="M111.271 70.27H99.0505V40.58H88.2305V29.9401H122.031V40.58H111.271V70.27Z" fill="#202020"/>
<path d="M167.139 70.27H153.289L151.839 65.55H137.329L135.879 70.27H122.029L136.909 29.9401H152.269L167.149 70.27H167.139ZM148.569 54.91L144.579 41.91L140.589 54.91H148.569Z" fill="#202020"/>
<path d="M328.95 70.27H316.73V40.58H305.91V29.9401H339.71V40.58H328.95V70.27Z" fill="#202020"/>
<path d="M356.29 70.27H344.07V29.9401H365.6C370.15 29.9401 373.71 31.26 376.27 33.9C378.83 36.54 380.11 39.84 380.11 43.79C380.11 47.74 378.83 50.98 376.27 53.62C373.71 56.26 370.15 57.58 365.6 57.58H356.29V70.28V70.27ZM364.03 46.9301C365.12 46.9301 366 46.66 366.69 46.11C367.38 45.57 367.72 44.79 367.72 43.78C367.72 42.77 367.38 41.93 366.69 41.39C366 40.85 365.12 40.5699 364.03 40.5699H356.29V46.92H364.03V46.9301Z" fill="#202020"/>
<path d="M399.711 71C397.211 71 394.901 70.6501 392.791 69.9401C390.671 69.2301 388.891 68.2799 387.441 67.0699C385.991 65.8599 384.781 64.62 383.811 63.35C382.841 62.08 382.041 60.7 381.391 59.21L391.911 54.37C392.431 56.02 393.451 57.41 394.961 58.54C396.471 59.67 398.221 60.23 400.191 60.23C404.221 60.23 406.981 58.56 408.481 55.21H394.691V44.5699H408.241C406.711 41.5499 404.031 40.03 400.201 40.03C398.221 40.03 396.481 40.6 394.971 41.72C393.461 42.85 392.441 44.24 391.921 45.89L381.401 40.99C382.851 37.69 385.061 34.9 388.021 32.65C390.981 30.39 394.881 29.26 399.721 29.26C406.131 29.26 411.431 31.2001 415.621 35.0601C419.811 38.9301 421.911 43.95 421.911 50.12C421.911 56.29 419.801 61.26 415.591 65.15C411.381 69.04 406.091 70.99 399.721 70.99L399.711 71Z" fill="#202020"/>
<path d="M464.65 70.27H449.77L440.7 56.0601L438.46 59.08V70.27H426.24V29.9401H438.46V45.0601L449.04 29.9401H463.98L448.74 48.6901L464.64 70.28L464.65 70.27Z" fill="#202020"/>
<path d="M236.86 31.1L199.24 0V62.66L235.46 98.88L236.86 100.29L274.49 62.66V0L236.87 31.1H236.86ZM215.87 47.8101L202.9 58.11V13.8199L215.87 47.8101ZM217.24 51.4L232.1 90.34L203.82 62.0601L217.24 51.4ZM205.26 9.71997L236.87 35.85L236.89 35.83L253.48 49.01L236.86 92.5601L205.25 9.71997H205.26ZM254.86 45.42L239.78 33.45L268.48 9.71997L254.86 45.42ZM241.64 90.34L270.84 13.8199V61.14L241.64 90.34Z" fill="#EF3543"/>
</svg>
