<svg width="177" height="23" viewBox="0 0 177 23" fill="none" xmlns="http://www.w3.org/2000/svg">
<g clip-path="url(#clip0_26_1068)">
<path d="M114.49 12.1518H108.135V6.96777H103.266V21.6734H108.135V16.324H114.49V21.6734H119.36V6.96777H114.49V12.1518Z" fill="black"/>
<path d="M168.801 6.96777L164.782 18.1865V6.96777H160.057V21.6734H167.715L171.752 10.4039V21.6734H176.477V6.96777H168.801Z" fill="black"/>
<path d="M131.416 6.96777L127.397 18.1865V6.96777H122.672V21.6734H130.33L134.367 10.4039V21.6734H139.092V6.96777H131.416Z" fill="black"/>
<path d="M154.526 14.4643L157.504 6.96777H152.634L150.481 12.3532C149.683 12.1613 148.83 12.0599 147.927 12.0599H147.275V6.96777H142.405V21.6734H147.275V16.2504H147.927C151.059 16.2504 152.689 18.2174 152.689 21.6734H157.559C157.559 18.788 156.457 16.2188 154.526 14.4636V14.4643Z" fill="black"/>
<path d="M97.7029 14.4695L100.604 6.96777H95.8244L93.6808 12.365C93.0356 12.2069 92.3549 12.1076 91.6423 12.0738V6.96851H86.7722V12.0724C86.0466 12.1047 85.3535 12.2047 84.6974 12.3657L82.5538 6.96851H77.7924L80.7238 14.4268C78.7497 16.1828 77.6113 18.7682 77.6113 21.6749H82.4814C82.4814 18.4137 83.9175 16.4791 86.7722 16.2718V21.6749H91.6423V16.274C94.4731 16.4953 95.8968 18.427 95.8968 21.6749H100.767C100.767 18.7924 99.6466 16.2262 97.7029 14.471V14.4695Z" fill="black"/>
<path d="M45.3156 6.96777V8.54871C45.3156 12.5378 45.0984 17.7946 41.2783 17.7946V22.0594C47.4353 22.0594 49.61 16.8762 49.7925 11.1407H53.535V21.6734H58.4051V6.96777H45.3163H45.3156Z" fill="black"/>
<path d="M71.5111 8.54871C71.5111 11.9385 71.0708 14.1305 70.0128 15.5122L65.5185 6.96777H60.4131L66.0986 17.4821C65.289 17.599 64.3743 17.6483 63.346 17.6483H61.0467V21.6741H63.5089C73.5562 21.6741 76.29 16.3247 76.29 8.54944V6.96851H71.5104V8.54944L71.5111 8.54871Z" fill="black"/>
<path d="M0 14.7064V22.0595C11.9989 22.0595 21.7253 12.1835 21.7253 0H14.4836C14.4836 8.12232 7.99927 14.7064 0 14.7064Z" fill="#EB3C4B"/>
<path d="M30.4156 0H23.1738V21.3242H30.4156V0Z" fill="#EB3C4B"/>
</g>
<defs>
<clipPath id="clip0_26_1068">
<rect width="176.476" height="22.0595" fill="white"/>
</clipPath>
</defs>
</svg>
