<svg width="1160" height="503" viewBox="0 0 1160 503" fill="none" xmlns="http://www.w3.org/2000/svg">
  <g id="Group 37629">
    <g id="Group 37638" class="content content_1">
      <rect id="Rectangle 484" x="384.167" y="353.517" width="204.214" height="70.6681" rx="5" fill="#C80A14"/>
      <g id="Frame 359">
        <path id="&#208;&#156;&#208;&#176;&#209;&#129;&#209;&#130;&#208;&#181;&#209;&#128;&#209;&#129;&#208;&#186;&#208;&#176;&#209;&#143; &#209;&#129;&#208;&#176;&#208;&#189;&#208;&#181;&#208;&#185;" d="M408.38 376.533L410.96 364.533H414.8V385.533H411.65V376.533L412.16 370.533H412.01L409.82 381.333H406.88L404.63 370.533H404.48L405.05 376.533V385.533H401.9V364.533H405.74L408.29 376.533H408.38ZM416.607 364.533H425.907V385.533H422.757V378.633H419.757V385.533H416.607V364.533ZM422.757 375.633V367.533H419.757V375.633H422.757ZM436.861 385.533H429.091C428.251 385.533 427.711 384.963 427.711 384.153V365.913C427.711 365.103 428.251 364.533 429.091 364.533H436.861V370.533H433.711V367.533H430.861V382.533H433.711V378.633H436.861V385.533ZM437.921 367.533V364.533H447.071V367.533H444.071V385.533H440.921V367.533H437.921ZM448.277 385.533V364.533H456.077V367.533H451.427V372.633H455.927V375.633H451.427V382.533H456.077V385.533H448.277ZM460.89 367.533V375.633H463.89V367.533H460.89ZM465.66 378.633H460.89V385.533H457.74V364.533H465.66C466.5 364.533 467.04 365.103 467.04 365.913V377.253C467.04 378.063 466.5 378.633 465.66 378.633ZM477.847 385.533H470.077C469.237 385.533 468.697 384.963 468.697 384.153V365.913C468.697 365.103 469.237 364.533 470.077 364.533H477.847V370.533H474.697V367.533H471.847V382.533H474.697V378.633H477.847V385.533ZM486.317 374.133L489.557 385.533H486.227L483.467 375.633H482.657V385.533H479.507V364.533H482.657V372.633H483.557L486.227 364.533H489.557L486.317 374.133ZM490.611 364.533H499.911V385.533H496.761V378.633H493.761V385.533H490.611V364.533ZM496.761 375.633V367.533H493.761V375.633H496.761ZM504.444 385.533H501.114L504.204 375.633H503.244C502.404 375.633 501.864 375.063 501.864 374.253V365.913C501.864 365.103 502.404 364.533 503.244 364.533H511.014V385.533H507.864V375.633H507.564L504.444 385.533ZM507.864 372.633V367.533H505.014V372.633H507.864ZM527.066 385.533H519.296C518.456 385.533 517.916 384.963 517.916 384.153V365.913C517.916 365.103 518.456 364.533 519.296 364.533H527.066V370.533H523.916V367.533H521.066V382.533H523.916V378.633H527.066V385.533ZM528.726 364.533H538.026V385.533H534.876V378.633H531.876V385.533H528.726V364.533ZM534.876 375.633V367.533H531.876V375.633H534.876ZM546.43 364.533H549.58V385.533H546.43V375.633H542.98V385.533H539.83V364.533H542.98V372.633H546.43V364.533ZM551.373 385.533V364.533H559.173V367.533H554.523V372.633H559.023V375.633H554.523V382.533H559.173V385.533H551.373ZM563.836 363.633L563.236 361.383H567.586L566.986 363.633H563.836ZM570.586 385.533H567.436V373.773L563.986 381.003V385.533H560.836V364.533H563.986V375.213L567.436 367.983V364.533H570.586V385.533Z" fill="white"/>
        <path id="&#208;&#146;&#209;&#128;&#208;&#181;&#208;&#188;&#209;&#143;" d="M402.744 408.533V397.333H407.56C408.776 397.333 409.731 397.579 410.424 398.069C411.117 398.56 411.464 399.275 411.464 400.213C411.464 401.131 411.133 401.835 410.472 402.325C409.811 402.805 408.941 403.045 407.864 403.045L408.152 402.565C409.4 402.565 410.355 402.816 411.016 403.317C411.688 403.808 412.024 404.528 412.024 405.477C412.024 406.437 411.672 407.189 410.968 407.733C410.275 408.267 409.24 408.533 407.864 408.533H402.744ZM404.328 407.269H407.832C408.685 407.269 409.325 407.115 409.752 406.805C410.189 406.485 410.408 406 410.408 405.349C410.408 404.699 410.189 404.224 409.752 403.925C409.325 403.627 408.685 403.477 407.832 403.477H404.328V407.269ZM404.328 402.261H407.448C408.227 402.261 408.819 402.107 409.224 401.797C409.64 401.488 409.848 401.035 409.848 400.437C409.848 399.829 409.64 399.371 409.224 399.061C408.819 398.752 408.227 398.597 407.448 398.597H404.328V402.261ZM418.937 408.629C418.233 408.629 417.588 408.469 417.001 408.149C416.425 407.819 415.961 407.333 415.609 406.693C415.268 406.053 415.097 405.253 415.097 404.293C415.097 403.333 415.262 402.533 415.593 401.893C415.934 401.253 416.393 400.773 416.969 400.453C417.556 400.133 418.212 399.973 418.937 399.973C419.769 399.973 420.505 400.155 421.145 400.517C421.785 400.88 422.292 401.387 422.665 402.037C423.038 402.677 423.225 403.429 423.225 404.293C423.225 405.157 423.038 405.915 422.665 406.565C422.292 407.216 421.785 407.723 421.145 408.085C420.505 408.448 419.769 408.629 418.937 408.629ZM414.441 411.637V400.053H415.913V402.341L415.817 404.309L415.977 406.277V411.637H414.441ZM418.809 407.285C419.353 407.285 419.838 407.163 420.265 406.917C420.702 406.672 421.044 406.325 421.289 405.877C421.545 405.419 421.673 404.891 421.673 404.293C421.673 403.685 421.545 403.163 421.289 402.725C421.044 402.277 420.702 401.931 420.265 401.685C419.838 401.44 419.353 401.317 418.809 401.317C418.276 401.317 417.79 401.44 417.353 401.685C416.926 401.931 416.585 402.277 416.329 402.725C416.084 403.163 415.961 403.685 415.961 404.293C415.961 404.891 416.084 405.419 416.329 405.877C416.585 406.325 416.926 406.672 417.353 406.917C417.79 407.163 418.276 407.285 418.809 407.285ZM429.233 408.629C428.326 408.629 427.526 408.443 426.833 408.069C426.15 407.696 425.617 407.184 425.233 406.533C424.859 405.883 424.673 405.136 424.673 404.293C424.673 403.451 424.854 402.704 425.217 402.053C425.59 401.403 426.097 400.896 426.737 400.533C427.387 400.16 428.118 399.973 428.929 399.973C429.75 399.973 430.475 400.155 431.105 400.517C431.734 400.88 432.225 401.392 432.577 402.053C432.939 402.704 433.121 403.467 433.121 404.341C433.121 404.405 433.115 404.48 433.105 404.565C433.105 404.651 433.099 404.731 433.089 404.805H425.873V403.701H432.289L431.665 404.085C431.675 403.541 431.563 403.056 431.329 402.629C431.094 402.203 430.769 401.872 430.353 401.637C429.947 401.392 429.473 401.269 428.929 401.269C428.395 401.269 427.921 401.392 427.505 401.637C427.089 401.872 426.763 402.208 426.529 402.645C426.294 403.072 426.177 403.563 426.177 404.117V404.373C426.177 404.939 426.305 405.445 426.561 405.893C426.827 406.331 427.195 406.672 427.665 406.917C428.134 407.163 428.673 407.285 429.281 407.285C429.782 407.285 430.235 407.2 430.641 407.029C431.057 406.859 431.419 406.603 431.729 406.261L432.577 407.253C432.193 407.701 431.713 408.043 431.137 408.277C430.571 408.512 429.937 408.629 429.233 408.629ZM435.504 408.533V400.053H437.088L440.736 406.325H440.096L443.84 400.053H445.28V408.533H443.888V401.781L444.144 401.925L440.72 407.573H440.048L436.608 401.813L436.912 401.749V408.533H435.504ZM453.693 408.533V405.557L453.933 405.845H451.229C450.099 405.845 449.213 405.605 448.573 405.125C447.944 404.645 447.629 403.947 447.629 403.029C447.629 402.048 447.965 401.307 448.637 400.805C449.32 400.304 450.227 400.053 451.357 400.053H455.069V408.533H453.693ZM447.549 408.533L449.853 405.285H451.437L449.197 408.533H447.549ZM453.693 405.077V400.965L453.933 401.397H451.405C450.701 401.397 450.157 401.531 449.773 401.797C449.389 402.053 449.197 402.48 449.197 403.077C449.197 404.187 449.912 404.741 451.341 404.741H453.933L453.693 405.077Z" fill="white"/>
      </g>
    </g>
    <g id="figure 1" class="figure figure_160">
      <circle id="Ellipse 53" cx="354.935" cy="388.495" r="16.5288" fill="white"/>
      <path id="1" d="M352.459 381.024V378.024H356.959V399.024H353.809V381.024H352.459Z" fill="#C80A14"/>
    </g>
  </g>
</svg>
