<svg width="47" height="44" viewBox="0 0 47 44" fill="none" xmlns="http://www.w3.org/2000/svg">
<path d="M12.1416 0C14.521 0 16.4502 1.92916 16.4502 4.30859C16.4502 4.44063 16.4433 4.57119 16.4316 4.7002H30.5684C30.5567 4.5712 30.5498 4.44062 30.5498 4.30859C30.5498 1.92922 32.479 8.52277e-05 34.8584 0H36.4248C38.8042 0 40.7334 1.92916 40.7334 4.30859C40.7334 4.57892 40.7068 4.84308 40.6592 5.09961C44.3317 6.23374 47 9.65528 47 13.7002V34.8672C46.9998 39.8376 42.9705 43.8672 38 43.8672H9C4.02958 43.8671 0.000183058 39.8376 0 34.8672V13.7002C0 9.65569 2.66791 6.23409 6.33984 5.09961C6.29224 4.84316 6.26661 4.57883 6.2666 4.30859C6.2666 1.92916 8.19576 0 10.5752 0H12.1416ZM14.041 15.1709C12.3842 15.1709 11.041 16.514 11.041 18.1709V30.7607C11.0413 32.4172 12.3836 33.7605 14.04 33.7607H33.0381C34.6948 33.7606 36.0381 32.4165 36.0381 30.7598V18.1709C36.0381 16.5141 34.6948 15.171 33.0381 15.1709H14.041Z" fill="#539635"/>
</svg>
