<svg width="145" height="44" viewBox="0 0 145 44" fill="none" xmlns="http://www.w3.org/2000/svg">
<path fill-rule="evenodd" clip-rule="evenodd" d="M79.0559 22.2654H76.3158V4.29022H79.0559V11.3362H79.5099C80.9974 11.3362 81.4828 9.72345 81.4828 8.5178V4.29022H84.223V8.40823C84.223 10.3028 83.5183 11.712 82.1561 12.6515C83.628 13.6849 84.223 15.0001 84.223 16.8947V22.281H81.4828V16.7695C81.4828 15.6108 80.9348 14.2016 79.5413 14.2016H79.0559V22.2654ZM125.7 22.2654V4.29022H128.143V14.7966L130.961 4.29022H134.03V22.2654H131.556V9.75478L128.19 22.281H125.7V22.2654ZM135.972 22.2497V4.27455H138.415V14.7809L141.233 4.27455H144.302V22.2497H141.828V9.73915L138.462 22.2654H135.972V22.2497ZM143.159 0V2.09814H137.115V0H143.159ZM118.701 22.234H115.961V4.25892H118.701V11.3049H119.156C120.643 11.3049 121.128 9.69215 121.128 8.4865V4.25892H123.869V8.37689C123.869 10.2715 123.164 11.6807 121.802 12.6202C123.274 13.6536 123.869 14.9688 123.869 16.8634V22.2497H121.128V16.7381C121.128 15.5795 120.58 14.1703 119.187 14.1703H118.701V22.234ZM68.9566 22.2028H66.2165V4.22758H74.3742V11.4458H71.5715V6.79548H68.9566V19.6348H71.5715V14.9845H74.3742V22.2028H68.9723H68.9566ZM108.602 22.2028H105.862V4.22758H114.02V11.4458H111.217V6.79548H108.602V19.6348H111.217V14.9845H114.02V22.2028H108.618H108.602ZM61.4722 6.79548H58.9043V19.6348H61.4722V6.79548ZM58.8573 22.2028H56.1172V4.22758H64.2749V22.2028H58.873H58.8573ZM91.5352 6.79548H88.9673V19.6348H91.5352V6.79548ZM88.9203 22.2028H86.1802V4.22758H94.3379V22.2028H88.936H88.9203ZM99.0196 6.79548V11.6181C100.037 11.6807 101.29 11.6181 101.29 9.78613V8.1577V6.81111H99.0352L99.0196 6.79548ZM99.0196 14.186V19.6348H101.274C101.274 18.4762 101.274 17.3019 101.274 16.1432C101.274 14.3112 100.037 14.139 99.0039 14.186H99.0196ZM104.03 7.39048V9.59819C104.03 11.0387 103.435 12.0721 102.496 12.7454C103.498 13.544 104.03 14.7809 104.03 16.3154V22.2028C102.355 22.2028 100.695 22.2028 99.0196 22.2028H96.2795V4.22758H99.0196C100.695 4.22758 102.355 4.22758 104.03 4.22758V7.39048ZM48.3666 16.2684C49.0868 12.4323 50.0263 8.1264 50.4491 4.25892H54.1443V22.234H51.7487V15.1254L52.0305 8.70573C51.686 10.7726 50.3395 18.3822 48.6171 22.0462H48.3666H48.1161C46.3937 18.3822 45.0471 10.7726 44.7027 8.70573L44.9845 15.1254V22.234H42.5889V4.25892H46.2841C46.7225 8.1264 47.6463 12.4166 48.3666 16.2684Z" fill="#FB0C34"/>
<path fill-rule="evenodd" clip-rule="evenodd" d="M75.5329 27.6514V35.6525C76.5507 35.7151 77.8033 35.5273 77.8033 33.6953V32.0669V27.6514H75.5486H75.5329ZM80.5434 31.3309V33.5387C80.5434 36.3101 79.1186 38.236 76.4411 38.236H75.5329V43.0743H72.7928V25.0992C75.3763 25.0992 77.9599 25.0992 80.5591 25.0992V31.3466L80.5434 31.3309ZM81.295 25.0835H89.7815V27.6514H86.9161V43.0587H84.176V27.6514H81.3107V25.0835H81.295ZM68.1111 27.6514H65.5432V40.4908H68.1111V27.6514ZM65.4963 43.0587H62.7561V25.0835H70.9139V43.0587H65.5119H65.4963ZM45.3134 43.0587H42.5732V25.0835H50.731V32.3017H47.9282V27.6514H45.3134V40.4908H47.9282V35.8404H50.731V43.0587H45.329H45.3134ZM55.397 43.0587H52.6569V25.0835H60.8146V43.0587H58.0118V27.6514H55.397V43.0587Z" fill="#FB0C34"/>
<path fill-rule="evenodd" clip-rule="evenodd" d="M18.6016 33.7107C19.2748 34.5405 20.0108 35.3234 20.7936 36.0593C24.4263 39.5197 29.0923 42.0093 34.3063 43.0584V39.9581C29.9848 38.956 26.1173 36.8265 23.0484 33.9299C22.0463 32.9747 21.1225 31.9413 20.3083 30.8296L18.6016 33.7263V33.7107Z" fill="#FB0C34"/>
<path fill-rule="evenodd" clip-rule="evenodd" d="M7.32779 30.4851C10.7412 27.244 12.855 22.7814 12.855 17.8649V4.2583H16.0335V17.8649C16.0335 20.2605 16.4406 23.0633 17.1609 25.2397C17.8968 23.0633 18.2882 20.2605 18.2882 17.8649V4.2583H21.4668V17.8649C21.4668 22.7814 23.5806 27.244 26.994 30.4851C29.0295 32.411 31.5191 33.9141 34.2905 34.8066V37.9852C30.6266 36.9987 27.3541 35.1355 24.7393 32.6302C22.7664 30.7513 21.1693 28.5279 20.0576 26.0696C19.2277 28.1991 18.3039 30.2346 17.1609 31.769C16.0179 30.2346 15.094 28.1991 14.2642 26.0696C13.1525 28.5279 11.5554 30.767 9.58252 32.6302C6.96766 35.1198 3.67952 36.9987 0.03125 37.9852V34.8066C2.80268 33.9141 5.29228 32.4267 7.32779 30.4851Z" fill="#FB0C34"/>
<path fill-rule="evenodd" clip-rule="evenodd" d="M26.5711 17.5826C26.5711 21.1682 28.1056 24.4094 30.5952 26.7737C31.6756 27.7915 32.9282 28.6527 34.3061 29.2946V32.5984C32.0513 31.7842 30.0315 30.516 28.3561 28.9189C25.3028 26.0065 23.3926 21.9981 23.3926 17.5826V14.5137H26.5711V17.5826Z" fill="#FB0C34"/>
<path fill-rule="evenodd" clip-rule="evenodd" d="M7.74961 14.5137H10.9281V17.5826C10.9281 21.9981 9.03355 26.0065 5.96462 28.9189C4.28923 30.516 2.25371 31.7842 0.0146484 32.5984V29.2946C1.39253 28.6527 2.64515 27.8071 3.72554 26.7737C6.21513 24.4094 7.74961 21.1526 7.74961 17.5826V14.5137Z" fill="#FB0C34"/>
<path fill-rule="evenodd" clip-rule="evenodd" d="M13.9981 30.8145C13.1839 31.9262 12.2757 32.9596 11.258 33.9147C8.20469 36.8271 4.32155 38.9409 0 39.943V43.0432C5.19839 41.9942 9.86443 39.5046 13.497 36.0442C14.2799 35.3083 15.0002 34.5254 15.6891 33.6955L13.9824 30.7988L13.9981 30.8145Z" fill="#FB0C34"/>
</svg>
